<?xml version="1.0" encoding="UTF-8" standalone="no"?>
<svg
   xmlns:dc="http://purl.org/dc/elements/1.1/"
   xmlns:cc="http://creativecommons.org/ns#"
   xmlns:rdf="http://www.w3.org/1999/02/22-rdf-syntax-ns#"
   xmlns:svg="http://www.w3.org/2000/svg"
   xmlns="http://www.w3.org/2000/svg"
   xmlns:sodipodi="http://sodipodi.sourceforge.net/DTD/sodipodi-0.dtd"
   xmlns:inkscape="http://www.inkscape.org/namespaces/inkscape"
   class="bi bi-calendar"
   width="1em"
   height="1em"
   viewBox="0 0 16 16"
   fill="currentColor"
   version="1.1"
   id="svg6"
   sodipodi:docname="icon.svg"
   inkscape:export-filename="C:\Users\pehei\git\DayCounter\img\icons\icon-96x96.png"
   inkscape:export-xdpi="576"
   inkscape:export-ydpi="576"
   inkscape:version="0.92.4 (5da689c313, 2019-01-14)">
  <metadata
     id="metadata12">
    <rdf:RDF>
      <cc:Work
         rdf:about="">
        <dc:format>image/svg+xml</dc:format>
        <dc:type
           rdf:resource="http://purl.org/dc/dcmitype/StillImage" />
      </cc:Work>
    </rdf:RDF>
  </metadata>
  <defs
     id="defs10" />
  <sodipodi:namedview
     pagecolor="#ffffff"
     bordercolor="#666666"
     borderopacity="1"
     objecttolerance="10"
     gridtolerance="10"
     guidetolerance="10"
     inkscape:pageopacity="0"
     inkscape:pageshadow="2"
     inkscape:window-width="1920"
     inkscape:window-height="1017"
     id="namedview8"
     showgrid="false"
     inkscape:zoom="59"
     inkscape:cx="8.3269144"
     inkscape:cy="9.5998709"
     inkscape:window-x="-8"
     inkscape:window-y="-8"
     inkscape:window-maximized="1"
     inkscape:current-layer="svg6" />
  <path
     fill-rule="evenodd"
     d="M14 0H2a2 2 0 00-2 2v12a2 2 0 002 2h12a2 2 0 002-2V2a2 2 0 00-2-2zM1 3.857C1 3.384 1.448 3 2 3h12c.552 0 1 .384 1 .857v10.286c0 .473-.448.857-1 .857H2c-.552 0-1-.384-1-.857V3.857z"
     clip-rule="evenodd"
     id="path2" />
  <path
     fill-rule="evenodd"
     d="M6.5 7a1 1 0 100-2 1 1 0 000 2zm3 0a1 1 0 100-2 1 1 0 000 2zm3 0a1 1 0 100-2 1 1 0 000 2zm-9 3a1 1 0 100-2 1 1 0 000 2zm3 0a1 1 0 100-2 1 1 0 000 2zm3 0a1 1 0 100-2 1 1 0 000 2zm3 0a1 1 0 100-2 1 1 0 000 2zm-9 3a1 1 0 100-2 1 1 0 000 2zm3 0a1 1 0 100-2 1 1 0 000 2zm3 0a1 1 0 100-2 1 1 0 000 2z"
     clip-rule="evenodd"
     id="path4" />
  <path
     style="fill:#ffffff;stroke-width:0.01694915"
     d="M 1.7126621,14.953716 C 1.4029463,14.870186 1.1613765,14.665999 1.0517806,14.395107 l -0.038426,-0.09498 -0.00446,-5.2457626 c -0.00317,-3.726822 8.706e-4,-5.27159 0.013958,-5.334959 0.070116,-0.339505 0.391976,-0.6246418 0.7808387,-0.6917475 0.1224231,-0.021126 0.9872813,-0.023898 6.2690614,-0.020087 l 6.1270463,0.00442 0.118644,0.039635 c 0.282107,0.094242 0.482312,0.2580402 0.595627,0.4873156 l 0.06539,0.1323062 0.005,5.2805412 c 0.0046,4.8770411 0.0028,5.2886731 -0.0232,5.3869631 -0.07482,0.282806 -0.347428,0.529713 -0.678294,0.614334 -0.129229,0.03305 -0.210203,0.03347 -6.2934564,0.03246 -5.901938,-9.77e-4 -6.1673746,-0.0023 -6.2767953,-0.03183 z m 2.0527668,-1.984635 c 0.1521987,-0.04218 0.2193694,-0.07569 0.3500582,-0.174628 0.2507803,-0.189864 0.3875852,-0.472981 0.3862813,-0.799409 -0.00106,-0.264891 -0.086313,-0.485136 -0.262352,-0.67775 -0.1119063,-0.122444 -0.2462534,-0.208392 -0.420228,-0.268841 -0.1258452,-0.04373 -0.1681303,-0.05022 -0.3227825,-0.04958 -0.2079336,8.59e-4 -0.33722,0.03545 -0.5066273,0.135555 -0.3020522,0.178484 -0.4933727,0.50935 -0.4933727,0.85323 0,0.180444 0.024536,0.286446 0.1056764,0.456541 0.123127,0.258113 0.3813585,0.467117 0.6607131,0.534758 0.1408451,0.0341 0.3594317,0.02981 0.5026335,-0.0099 z m 3,0 c 0.1521987,-0.04218 0.2193694,-0.07569 0.3500582,-0.174628 0.2507803,-0.189864 0.3875852,-0.472981 0.3862813,-0.799409 -0.00106,-0.264891 -0.086313,-0.485136 -0.262352,-0.67775 -0.1119063,-0.122444 -0.2462534,-0.208392 -0.420228,-0.268841 -0.1258452,-0.04373 -0.1681303,-0.05022 -0.3227825,-0.04958 -0.2079336,8.59e-4 -0.33722,0.03545 -0.5066273,0.135555 -0.3020522,0.178484 -0.4933727,0.50935 -0.4933727,0.85323 0,0.180444 0.024536,0.286446 0.1056764,0.456541 0.123127,0.258113 0.3813585,0.467117 0.6607131,0.534758 0.1408451,0.0341 0.3594317,0.02981 0.5026335,-0.0099 z m 3,0 c 0.1521987,-0.04218 0.2193694,-0.07569 0.3500581,-0.174628 0.25078,-0.189864 0.387585,-0.472981 0.386281,-0.799409 -0.0011,-0.264891 -0.08631,-0.485136 -0.262352,-0.67775 -0.111906,-0.122444 -0.246253,-0.208392 -0.4202276,-0.268841 -0.1258452,-0.04373 -0.1681303,-0.05022 -0.3227825,-0.04958 -0.2079336,8.59e-4 -0.33722,0.03545 -0.5066273,0.135555 -0.3020522,0.178484 -0.4933727,0.50935 -0.4933727,0.85323 0,0.180444 0.024536,0.286446 0.1056764,0.456541 0.123127,0.258113 0.3813585,0.467117 0.6607131,0.534758 0.1408451,0.0341 0.3594317,0.02981 0.5026335,-0.0099 z m -6,-3.0000002 C 3.9176276,9.9269045 3.9847983,9.8933961 4.1154871,9.7944528 4.3662674,9.6045893 4.5030723,9.321472 4.5017684,8.9950444 4.5007108,8.7301532 4.4154552,8.5099083 4.2394164,8.3172937 4.1275101,8.1948505 3.993163,8.1089018 3.8191884,8.0484528 3.6933432,8.0047269 3.6510581,7.9982315 3.4964059,7.9988708 3.2884723,7.9997301 3.1591859,8.0343227 2.9897786,8.1344261 2.6877264,8.3129101 2.4964059,8.6437764 2.4964059,8.9876559 c 0,0.1804441 0.024536,0.2864459 0.1056764,0.456541 0.123127,0.2581132 0.3813585,0.4671166 0.6607131,0.5347578 0.1408451,0.034103 0.3594317,0.029809 0.5026335,-0.00987 z m 3,0 C 6.9176276,9.9269045 6.9847983,9.8933961 7.1154871,9.7944528 7.3662674,9.6045893 7.5030723,9.321472 7.5017684,8.9950444 7.5007108,8.7301532 7.4154552,8.5099083 7.2394164,8.3172937 7.1275101,8.1948505 6.993163,8.1089018 6.8191884,8.0484528 6.6933432,8.0047269 6.6510581,7.9982315 6.4964059,7.9988708 6.2884723,7.9997301 6.1591859,8.0343227 5.9897786,8.1344261 5.6877264,8.3129101 5.4964059,8.6437764 5.4964059,8.9876559 c 0,0.1804441 0.024536,0.2864459 0.1056764,0.456541 0.123127,0.2581132 0.3813585,0.4671166 0.6607131,0.5347578 0.1408451,0.034103 0.3594317,0.029809 0.5026335,-0.00987 z m 3,0 C 9.9176276,9.9269045 9.9847983,9.8933961 10.115487,9.7944528 10.366267,9.6045893 10.503072,9.321472 10.501768,8.9950444 10.500711,8.7301532 10.415455,8.5099083 10.239416,8.3172937 10.12751,8.1948505 9.993163,8.1089018 9.8191884,8.0484528 9.6933432,8.0047269 9.6510581,7.9982315 9.4964059,7.9988708 9.2884723,7.9997301 9.1591859,8.0343227 8.9897786,8.1344261 8.6877264,8.3129101 8.4964059,8.6437764 8.4964059,8.9876559 c 0,0.1804441 0.024536,0.2864459 0.1056764,0.456541 0.123127,0.2581132 0.3813585,0.4671166 0.6607131,0.5347578 0.1408451,0.034103 0.3594317,0.029809 0.5026335,-0.00987 z m 3.0000001,0 c 0.152199,-0.042176 0.219369,-0.075685 0.350058,-0.174628 0.25078,-0.1898635 0.387585,-0.4729808 0.386281,-0.7994084 -0.0011,-0.2648912 -0.08631,-0.4851361 -0.262352,-0.6777507 -0.111906,-0.1224432 -0.246253,-0.2083919 -0.420228,-0.2688409 -0.125845,-0.043726 -0.16813,-0.050221 -0.322782,-0.049582 -0.207934,8.593e-4 -0.33722,0.035452 -0.506627,0.1355553 -0.302053,0.178484 -0.493373,0.5093503 -0.493373,0.8532298 0,0.1804441 0.02454,0.2864459 0.105676,0.456541 0.123127,0.2581132 0.381359,0.4671166 0.660713,0.5347578 0.140845,0.034103 0.359432,0.029809 0.502634,-0.00987 z m -6.0000001,-3 C 6.9176276,6.9269045 6.9847983,6.8933961 7.1154871,6.7944528 7.3662674,6.6045893 7.5030723,6.321472 7.5017684,5.9950444 7.5007108,5.7301532 7.4154552,5.5099083 7.2394164,5.3172937 7.1275101,5.1948505 6.993163,5.1089018 6.8191884,5.0484528 6.6933432,5.0047269 6.6510581,4.9982315 6.4964059,4.9988708 6.2884723,4.9997301 6.1591859,5.0343227 5.9897786,5.1344261 5.6877264,5.3129101 5.4964059,5.6437764 5.4964059,5.9876559 c 0,0.180444 0.024536,0.2864459 0.1056764,0.456541 0.123127,0.2581132 0.3813585,0.4671166 0.6607131,0.5347578 0.1408451,0.034103 0.3594317,0.029809 0.5026335,-0.00987 z m 3,0 C 9.9176276,6.9269045 9.9847983,6.8933961 10.115487,6.7944528 10.366267,6.6045893 10.503072,6.321472 10.501768,5.9950444 10.500711,5.7301532 10.415455,5.5099083 10.239416,5.3172937 10.12751,5.1948505 9.993163,5.1089018 9.8191884,5.0484528 9.6933432,5.0047269 9.6510581,4.9982315 9.4964059,4.9988708 9.2884723,4.9997301 9.1591859,5.0343227 8.9897786,5.1344261 8.6877264,5.3129101 8.4964059,5.6437764 8.4964059,5.9876559 c 0,0.180444 0.024536,0.2864459 0.1056764,0.456541 0.123127,0.2581132 0.3813585,0.4671166 0.6607131,0.5347578 0.1408451,0.034103 0.3594317,0.029809 0.5026335,-0.00987 z m 3.0000001,0 c 0.152199,-0.042176 0.219369,-0.075685 0.350058,-0.174628 0.25078,-0.1898635 0.387585,-0.4729808 0.386281,-0.7994084 -0.0011,-0.2648912 -0.08631,-0.4851361 -0.262352,-0.6777507 -0.111906,-0.1224432 -0.246253,-0.2083919 -0.420228,-0.2688409 -0.125845,-0.043726 -0.16813,-0.050221 -0.322782,-0.049582 -0.207934,8.593e-4 -0.33722,0.035452 -0.506627,0.1355553 -0.302053,0.178484 -0.493373,0.5093503 -0.493373,0.8532298 0,0.180444 0.02454,0.2864459 0.105676,0.456541 0.123127,0.2581132 0.381359,0.4671166 0.660713,0.5347578 0.140845,0.034103 0.359432,0.029809 0.502634,-0.00987 z"
     id="path16"
     inkscape:connector-curvature="0" />
  <path
     style="fill:#ffffff;stroke-width:0.01694915"
     d="M 1.7254265,14.959212 C 1.4746791,14.898595 1.2097934,14.704277 1.1025172,14.50225 0.99756922,14.304608 1.0048805,14.715934 1.0048805,9.0092667 c 0,-3.7493401 0.00527,-5.2326186 0.018807,-5.2972864 0.06347,-0.303117 0.3435389,-0.5729308 0.695758,-0.6702828 0.101504,-0.028055 0.4508333,-0.029704 6.2939095,-0.029704 h 6.186441 l 0.118644,0.040065 c 0.284858,0.096195 0.482304,0.2575938 0.595627,0.4868848 l 0.06539,0.1323062 0.005,5.2805412 c 0.0046,4.8770413 0.0028,5.2886733 -0.0232,5.3869633 -0.07482,0.282806 -0.347428,0.529713 -0.678294,0.614334 -0.129243,0.03306 -0.20954,0.03346 -6.2934566,0.03207 -5.3170537,-0.0012 -6.176467,-0.0048 -6.2640309,-0.02595 z M 3.7308786,12.97758 c 0.3610361,-0.08212 0.6649868,-0.387644 0.7493078,-0.753198 0.029587,-0.128268 0.025001,-0.368287 -0.00931,-0.487071 -0.098468,-0.340927 -0.3673395,-0.609799 -0.7082666,-0.708266 -0.118784,-0.03431 -0.3588027,-0.03889 -0.487071,-0.0093 -0.3583429,0.08266 -0.6691308,0.392219 -0.753645,0.75067 -0.079299,0.336331 0.022573,0.689596 0.2702984,0.937321 0.1308969,0.130897 0.3046676,0.231048 0.4705995,0.271226 0.1242861,0.03009 0.3324134,0.02948 0.4680832,-0.0014 z m 3,0 c 0.3610361,-0.08212 0.6649868,-0.387644 0.7493078,-0.753198 0.029587,-0.128268 0.025001,-0.368287 -0.00931,-0.487071 -0.098468,-0.340927 -0.3673395,-0.609799 -0.7082666,-0.708266 -0.118784,-0.03431 -0.3588027,-0.03889 -0.487071,-0.0093 -0.3583429,0.08266 -0.6691308,0.392219 -0.7536449,0.75067 -0.079299,0.336331 0.022573,0.689596 0.2702983,0.937321 0.1308969,0.130897 0.3046676,0.231048 0.4705995,0.271226 0.1242861,0.03009 0.3324134,0.02948 0.4680832,-0.0014 z m 3,0 c 0.3610364,-0.08212 0.6649864,-0.387644 0.7493074,-0.753198 0.02959,-0.128268 0.025,-0.368287 -0.0093,-0.487071 -0.09847,-0.340927 -0.367339,-0.609799 -0.7082665,-0.708266 -0.118784,-0.03431 -0.3588027,-0.03889 -0.487071,-0.0093 -0.3583429,0.08266 -0.6691308,0.392219 -0.7536449,0.75067 -0.079299,0.336331 0.022573,0.689596 0.2702983,0.937321 0.1308969,0.130897 0.3046676,0.231048 0.4705995,0.271226 0.1242861,0.03009 0.3324134,0.02948 0.4680832,-0.0014 z m -6,-3.0000002 C 4.0919147,9.8954639 4.3958654,9.5899355 4.4801864,9.2243823 4.5097737,9.096114 4.5051878,8.8560954 4.4708801,8.7373113 4.3724125,8.3963842 4.1035406,8.1275123 3.7626135,8.0290447 3.6438295,7.9947371 3.4038108,7.9901511 3.2755425,8.0197384 2.9171996,8.1023964 2.6064117,8.4119571 2.5218975,8.7704076 c -0.079299,0.336331 0.022573,0.6895963 0.2702984,0.9373213 0.1308969,0.1308968 0.3046676,0.2310482 0.4705995,0.2712258 0.1242861,0.030094 0.3324134,0.029482 0.4680832,-0.00137 z m 3,0 C 7.0919147,9.8954639 7.3958654,9.5899355 7.4801864,9.2243823 7.5097737,9.096114 7.5051878,8.8560954 7.4708801,8.7373113 7.3724125,8.3963842 7.1035406,8.1275123 6.7626135,8.0290447 6.6438295,7.9947371 6.4038108,7.9901511 6.2755425,8.0197384 5.9171996,8.1023964 5.6064117,8.4119571 5.5218976,8.7704076 c -0.079299,0.336331 0.022573,0.6895963 0.2702983,0.9373213 0.1308969,0.1308968 0.3046676,0.2310482 0.4705995,0.2712258 0.1242861,0.030094 0.3324134,0.029482 0.4680832,-0.00137 z m 3,0 c 0.3610364,-0.082116 0.6649864,-0.3876443 0.7493074,-0.7531975 0.02959,-0.1282683 0.025,-0.3682869 -0.0093,-0.487071 -0.09847,-0.3409271 -0.367339,-0.609799 -0.7082665,-0.7082666 -0.118784,-0.034308 -0.3588027,-0.038894 -0.487071,-0.00931 -0.3583429,0.082658 -0.6691308,0.3922187 -0.7536449,0.7506692 -0.079299,0.336331 0.022573,0.6895963 0.2702983,0.9373213 0.1308969,0.1308968 0.3046676,0.2310482 0.4705995,0.2712258 0.1242861,0.030094 0.3324134,0.029482 0.4680832,-0.00137 z m 3.0000004,0 c 0.361036,-0.082116 0.664986,-0.3876443 0.749307,-0.7531975 0.02959,-0.1282683 0.025,-0.3682869 -0.0093,-0.487071 -0.09847,-0.3409271 -0.367339,-0.609799 -0.708266,-0.7082666 -0.118785,-0.034308 -0.358803,-0.038894 -0.487071,-0.00931 -0.358343,0.082658 -0.669131,0.3922187 -0.753645,0.7506692 -0.0793,0.336331 0.02257,0.6895963 0.270298,0.9373213 0.130897,0.1308968 0.304668,0.2310482 0.470599,0.2712258 0.124286,0.030094 0.332414,0.029482 0.468084,-0.00137 z m -6.0000004,-3 C 7.0919147,6.8954638 7.3958654,6.5899355 7.4801864,6.2243823 7.5097737,6.096114 7.5051878,5.8560954 7.4708801,5.7373113 7.3724125,5.3963842 7.1035406,5.1275123 6.7626135,5.0290447 6.6438295,4.9947371 6.4038108,4.9901511 6.2755425,5.0197384 5.9171996,5.1023964 5.6064117,5.4119571 5.5218976,5.7704076 c -0.079299,0.336331 0.022573,0.6895962 0.2702983,0.9373213 0.1308969,0.1308968 0.3046676,0.2310482 0.4705995,0.2712258 0.1242861,0.030094 0.3324134,0.029483 0.4680832,-0.00137 z m 3,0 c 0.3610364,-0.082116 0.6649864,-0.3876443 0.7493074,-0.7531975 0.02959,-0.1282683 0.025,-0.3682869 -0.0093,-0.487071 C 10.372416,5.3963842 10.103547,5.1275123 9.7626195,5.0290447 9.6438355,4.9947367 9.4038168,4.9901507 9.2755485,5.0197347 8.9172056,5.1023927 8.6064177,5.4119534 8.5219036,5.7704039 8.4426046,6.1067349 8.5444766,6.4600001 8.7922019,6.7077252 8.9230988,6.838622 9.0968695,6.9387734 9.2628014,6.978951 9.3870875,7.009045 9.5952148,7.008434 9.7308846,6.977581 Z m 3.0000004,0 c 0.361036,-0.082116 0.664986,-0.3876443 0.749307,-0.7531975 0.02959,-0.1282683 0.025,-0.3682869 -0.0093,-0.487071 -0.09847,-0.3409271 -0.367339,-0.609799 -0.708266,-0.7082666 -0.118785,-0.034308 -0.358803,-0.038894 -0.487071,-0.00931 -0.358343,0.082658 -0.669131,0.3922187 -0.753645,0.7506692 -0.0793,0.336331 0.02257,0.6895962 0.270298,0.9373213 0.130897,0.1308968 0.304668,0.2310482 0.470599,0.2712258 0.124286,0.030094 0.332414,0.029483 0.468084,-0.00137 z"
     id="path20"
     inkscape:connector-curvature="0" />
  <path
     style="fill:#ffffff;stroke-width:0.01694915"
     d="m 1.7254265,14.959212 c -0.2527232,-0.0611 -0.5249492,-0.261243 -0.6251743,-0.459646 -0.10232868,-0.202567 -0.095372,0.197926 -0.095372,-5.4902993 0,-3.7673664 0.00523,-5.2323077 0.018914,-5.2972864 C 1.056263,3.5577989 1.1220507,3.4448004 1.2586944,3.3085114 1.3967804,3.1707838 1.5286087,3.0944441 1.7194455,3.0416975 1.8209495,3.0136422 2.1702788,3.0119935 8.013355,3.0119935 h 6.186441 l 0.118644,0.039417 c 0.282577,0.09388 0.481703,0.2570261 0.596018,0.4883245 l 0.065,0.131515 0.0045,5.2890158 c 0.0044,5.2206242 0.004,5.2904432 -0.02893,5.3994162 -0.08422,0.278402 -0.346756,0.510202 -0.672078,0.593406 -0.129243,0.03306 -0.20954,0.03346 -6.2934566,0.03207 -5.3170537,-0.0012 -6.176467,-0.0048 -6.2640309,-0.02595 z M 3.6924456,12.985403 C 3.9326498,12.942135 4.2000618,12.759364 4.3439033,12.540144 4.5263518,12.262085 4.54954,11.852005 4.3995762,11.555577 4.2685122,11.296507 4.027994,11.099688 3.7558415,11.028801 3.6322079,10.996599 3.3631176,10.996542 3.2422967,11.0287 c -0.2685061,0.07145 -0.5202693,0.281431 -0.6404348,0.534147 -0.078822,0.165768 -0.1055592,0.276898 -0.1052055,0.437275 7.075e-4,0.320712 0.1626953,0.631513 0.4252363,0.815889 0.2339017,0.164263 0.4884281,0.220218 0.7705529,0.169398 z m 3,0 C 6.9326498,12.942135 7.2000618,12.759364 7.3439034,12.540144 7.5263518,12.262085 7.54954,11.852005 7.3995762,11.555577 7.2685122,11.296507 7.027994,11.099688 6.7558415,11.028801 6.6322079,10.996599 6.3631176,10.996542 6.2422967,11.0287 c -0.2685061,0.07145 -0.5202693,0.281431 -0.6404349,0.534147 -0.078822,0.165768 -0.1055591,0.276898 -0.1052054,0.437275 7.068e-4,0.320712 0.1626953,0.631513 0.4252363,0.815889 0.2339017,0.164263 0.4884281,0.220218 0.7705529,0.169398 z m 3,0 c 0.2402042,-0.04327 0.5076164,-0.226039 0.6514574,-0.445259 0.182449,-0.278059 0.205637,-0.688139 0.05567,-0.984567 -0.131064,-0.25907 -0.371582,-0.455889 -0.6437345,-0.526776 -0.1236336,-0.0322 -0.3927239,-0.03226 -0.5135448,-1.01e-4 -0.2685061,0.07145 -0.5202693,0.281431 -0.6404349,0.534147 -0.078822,0.165768 -0.1055591,0.276898 -0.1052054,0.437275 7.068e-4,0.320712 0.1626953,0.631513 0.4252363,0.815889 0.2339017,0.164263 0.4884281,0.220218 0.7705529,0.169398 z m -6,-3 C 3.9326498,9.9421347 4.2000618,9.7593635 4.3439033,9.5401435 4.5263518,9.2620854 4.54954,8.8520047 4.3995762,8.5555766 4.2685122,8.2965067 4.027994,8.0996881 3.7558415,8.0288015 3.6322079,7.9965989 3.3631176,7.9965425 3.2422967,8.0286998 2.9737906,8.100151 2.7220274,8.3101311 2.6018619,8.5628471 2.5230399,8.7286147 2.4963027,8.839745 2.4966564,9.000122 2.4973639,9.320834 2.6593517,9.6316354 2.9218927,9.8160108 3.1557944,9.9802735 3.4103208,10.036229 3.6924456,9.9854091 Z m 3,0 C 6.9326498,9.9421347 7.2000618,9.7593635 7.3439034,9.5401435 7.5263518,9.2620854 7.54954,8.8520047 7.3995762,8.5555766 7.2685122,8.2965067 7.027994,8.0996881 6.7558415,8.0288015 6.6322079,7.9965989 6.3631176,7.9965425 6.2422967,8.0286998 5.9737906,8.100151 5.7220274,8.3101311 5.6018618,8.5628471 5.52304,8.7286147 5.4963027,8.839745 5.4966564,9.000122 5.4973632,9.320834 5.6593517,9.6316354 5.9218927,9.8160108 6.1557944,9.9802735 6.4103208,10.036229 6.6924456,9.9854091 Z m 3,0 C 9.9326498,9.9421347 10.200062,9.7593635 10.343903,9.5401435 10.526352,9.2620854 10.54954,8.8520047 10.399576,8.5555766 10.268512,8.2965067 10.027994,8.0996881 9.7558415,8.0288015 9.6322079,7.9965989 9.3631176,7.9965425 9.2422967,8.0286998 8.9737906,8.100151 8.7220274,8.3101311 8.6018618,8.5628471 8.52304,8.7286147 8.4963027,8.839745 8.4966564,9.000122 8.4973632,9.320834 8.6593517,9.6316354 8.9218927,9.8160108 9.1557944,9.9802735 9.4103208,10.036229 9.6924456,9.9854091 Z m 3.0000004,0 C 12.93265,9.9421347 13.200062,9.7593635 13.343903,9.5401435 13.526352,9.2620854 13.54954,8.8520047 13.399576,8.5555766 13.268512,8.2965067 13.027994,8.0996881 12.755841,8.0288015 12.632208,7.9965989 12.363118,7.9965425 12.242297,8.0286998 11.973791,8.100151 11.722027,8.3101311 11.601862,8.5628471 11.52304,8.7286147 11.496303,8.839745 11.496656,9.000122 c 7.07e-4,0.320712 0.162696,0.6315134 0.425237,0.8158888 0.233901,0.1642627 0.488428,0.2202182 0.770553,0.1693983 z m -6.0000004,-3 C 6.9326498,6.9421347 7.2000618,6.7593635 7.3439034,6.5401435 7.5263518,6.2620854 7.54954,5.8520047 7.3995762,5.5555766 7.2685122,5.2965067 7.027994,5.0996881 6.7558415,5.0288015 6.6322079,4.9965989 6.3631176,4.9965425 6.2422967,5.0286998 5.9737906,5.100151 5.7220274,5.3101311 5.6018618,5.5628471 5.52304,5.7286147 5.4963027,5.839745 5.4966564,6.000122 5.4973632,6.320834 5.6593517,6.6316354 5.9218927,6.8160108 6.1557944,6.9802735 6.4103208,7.0362286 6.6924456,6.9854091 Z m 3,0 C 9.9326498,6.9421347 10.200062,6.7593635 10.343903,6.5401435 10.526352,6.2620854 10.54954,5.8520047 10.399576,5.5555766 10.268512,5.2965067 10.027994,5.0996881 9.7558415,5.0288015 9.6322079,4.9965989 9.3631176,4.9965425 9.2422967,5.0286998 8.9737906,5.100151 8.7220274,5.3101311 8.6018618,5.5628471 8.52304,5.7286147 8.4963027,5.839745 8.4966564,6.000122 8.4973632,6.320834 8.6593517,6.6316354 8.9218927,6.8160108 9.1557944,6.9802735 9.4103208,7.0362286 9.6924456,6.9854091 Z m 3.0000004,0 C 12.93265,6.9421347 13.200062,6.7593635 13.343903,6.5401435 13.526352,6.2620854 13.54954,5.8520047 13.399576,5.5555766 13.268512,5.2965067 13.027994,5.0996881 12.755841,5.0288015 12.632208,4.9965989 12.363118,4.9965425 12.242297,5.0286998 11.973791,5.100151 11.722027,5.3101311 11.601862,5.5628471 11.52304,5.7286147 11.496303,5.839745 11.496656,6.000122 c 7.07e-4,0.320712 0.162696,0.6315134 0.425237,0.8158888 0.233901,0.1642627 0.488428,0.2202178 0.770553,0.1693983 z"
     id="path22"
     inkscape:connector-curvature="0" />
</svg>
